<?xml version="1.0" encoding="UTF-8" standalone="no"?>
<svg xmlns:rdf="http://www.w3.org/1999/02/22-rdf-syntax-ns#" xmlns="http://www.w3.org/2000/svg" height="512" width="512" version="1.1" xmlns:cc="http://creativecommons.org/ns#" xmlns:dc="http://purl.org/dc/elements/1.1/" viewBox="0 0 512.00001 512.00001">
 <defs>
  <linearGradient id="linearGradient4154" x1="256" gradientUnits="userSpaceOnUse" y1="933.68" gradientTransform="translate(-5.1825782e-6,-4.1849e-6)" x2="256" y2="645.22">
   <stop style="stop-color:#3296ff" offset="0"/>
   <stop style="stop-color:#00c8ff" offset="1"/>
  </linearGradient>
 </defs>
 <g transform="translate(0 -540.36)">
  <g style="fill:url(#linearGradient4154)">
   <path style="fill:url(#linearGradient4154)" d="m307.59 780.73q41.056 9.5726 57.648 23.187 23.825 19.358 23.825 50.203 0 32.547-26.165 53.819-32.121 25.74-93.386 25.74h-146.57v-7.8708q19.996 0 27.016-3.6163 7.2326-3.829 9.9981-9.7853 2.9781-5.9563 2.9781-29.356v-187.2q0-23.4-2.9781-29.356-2.7654-6.169-9.9981-9.7853-7.2326-3.6163-27.016-3.6163v-7.8708h138.27q49.565 0 70.199 8.9344 20.634 8.7217 32.547 26.378 11.913 17.443 11.913 37.227 0 20.847-15.103 37.227-15.103 16.167-53.181 25.74zm-77.432-5.7436q30.207 0 44.459-6.8072 14.465-6.8072 22.123-19.145 7.6581-12.338 7.6581-31.483t-7.6581-31.271q-7.4454-12.338-21.485-18.72-14.04-6.3817-45.098-6.169v113.59zm0 16.593v92.535l-0.21273 10.636q0 11.487 5.7436 17.443 5.9563 5.7436 17.443 5.7436 17.018 0 31.271-7.4454 14.465-7.6581 22.123-21.911 7.6581-14.465 7.6581-32.121 0-20.209-9.3599-36.163-9.3599-16.167-25.74-22.549-16.38-6.3817-48.927-6.169z"/>
  </g>
 </g>
</svg>
