<?xml version="1.0" encoding="UTF-8" standalone="no"?>
<svg xmlns:rdf="http://www.w3.org/1999/02/22-rdf-syntax-ns#" xmlns="http://www.w3.org/2000/svg" height="512" width="512" version="1.1" xmlns:cc="http://creativecommons.org/ns#" xmlns:xlink="http://www.w3.org/1999/xlink" viewBox="0 0 512.00001 512.00001" xmlns:dc="http://purl.org/dc/elements/1.1/">
 <defs>
  <linearGradient id="linearGradient4160" y2="-1.2539" gradientUnits="userSpaceOnUse" x2="266.66" y1="512.84" x1="266.66">
   <stop style="stop-color:#3296ff" offset="0"/>
   <stop style="stop-color:#00c8ff" offset="1"/>
  </linearGradient>
  <linearGradient id="linearGradient4172" x1="929.24" xlink:href="#linearGradient4160" gradientUnits="userSpaceOnUse" x2="559.02" gradientTransform="matrix(.97788 0 0 .97788 -365.63 -373.64)" y1="567.2" y2="196.98"/>
  <linearGradient id="linearGradient4391" y2="198.42" xlink:href="#linearGradient4160" gradientUnits="userSpaceOnUse" x2="-562.18" gradientTransform="translate(-262.59 -1147.7)" y1="558.76" x1="-922.52"/>
  <linearGradient id="linearGradient4393" y2="540.36" xlink:href="#linearGradient4160" gradientUnits="userSpaceOnUse" x2="256" gradientTransform="translate(992.51 -628.82)" y1="1052.4" x1="256"/>
  <linearGradient id="linearGradient4395" y2="-256" xlink:href="#linearGradient4160" gradientUnits="userSpaceOnUse" x2="-540.36" gradientTransform="translate(628.82 -992.51)" y1="-256" x1="-1052.4"/>
 </defs>
 <rect style="stroke-linejoin:round;stroke:url(#linearGradient4172);stroke-width:48;fill:none" transform="rotate(45)" height="328.1" width="328.1" y="-164.05" x="197.99"/>
 <g transform="translate(-992.5 88.46)">
  <circle style="stroke-linejoin:round;stroke:url(#linearGradient4391);stroke-width:25.001;fill-opacity:0" transform="matrix(-.70376 -.71044 -.70376 .71044 0 0)" cy="-768.98" cx="-914.25" r="21.403"/>
  <path style="stroke-linejoin:round;stroke:url(#linearGradient4393);stroke-width:20;fill-opacity:0" d="m1233.4 152.34-33.79-33.93"/>
  <ellipse style="stroke-linejoin:round;stroke:url(#linearGradient4395);stroke-width:25;fill-opacity:0" rx="21.504" ry="21.302" transform="matrix(0,-1,-1,0,0,0)" cy="-1248.5" cx="-167.54"/>
  <path style="stroke-linejoin:round;stroke:url(#linearGradient4393);stroke-width:20;fill-opacity:0" d="m1263.6 152.34 33.791-33.925"/>
  <circle style="stroke-linejoin:round;stroke:url(#linearGradient4391);stroke-width:25.001;fill-opacity:0" transform="matrix(-.70376 -.71044 -.70376 .71044 0 0)" cy="-859.8" cx="-1005.1" r="21.403"/>
  <ellipse style="stroke-linejoin:round;stroke:url(#linearGradient4395);stroke-width:25;fill:none" rx="21.504" transform="matrix(0,-1,-1,0,0,0)" ry="21.302" cy="-1248.4" cx="-258.43"/>
  <path style="stroke-linejoin:round;stroke:url(#linearGradient4393);stroke-width:20;fill-opacity:0" d="m1248.4 236.93 0.095-47.882"/>
 </g>
</svg>
