<?xml version="1.0" encoding="UTF-8" standalone="no"?>
<svg xmlns:rdf="http://www.w3.org/1999/02/22-rdf-syntax-ns#" xmlns="http://www.w3.org/2000/svg" height="512" width="512" version="1.0" xmlns:cc="http://creativecommons.org/ns#" xmlns:xlink="http://www.w3.org/1999/xlink" xmlns:dc="http://purl.org/dc/elements/1.1/">
 <defs>
  <linearGradient id="linearGradient4197" y2="-673.39" gradientUnits="userSpaceOnUse" x2="826.57" gradientTransform="translate(-570.57 673.39)" y1="-161.39" x1="826.57">
   <stop style="stop-color:#3296ff" offset="0"/>
   <stop style="stop-color:#00c8ff" offset="1"/>
  </linearGradient>
 </defs>
 <g transform="translate(-3 493)">
  <path style="fill:url(#linearGradient4197)" d="m256 0c-141.38 0-256 114.62-256 256s114.62 256 256 256 256-114.62 256-256-114.62-256-256-256zm-80.01 144a32.003 32.003 0 0 1 22.96 9.7l57.05 57.04 57.05-57.04a32.003 32.003 0 0 1 22 -9.68 32.003 32.003 0 0 1 23.25 54.93l-57.04 57.05 57.03 57.04a32.003 32.003 0 1 1 -45.25 45.25l-57.04-57.03-57.05 57.04a32.003 32.003 0 1 1 -45.25 -45.25l57.04-57.05-57.04-57.05a32.003 32.003 0 0 1 22.29 -54.95z" transform="translate(3 -493)"/>
 </g>
</svg>
