<?xml version="1.0" encoding="UTF-8" standalone="no"?>
<svg xmlns:rdf="http://www.w3.org/1999/02/22-rdf-syntax-ns#" xmlns="http://www.w3.org/2000/svg" height="512" width="512" version="1.0" xmlns:cc="http://creativecommons.org/ns#" xmlns:xlink="http://www.w3.org/1999/xlink" xmlns:dc="http://purl.org/dc/elements/1.1/">
 <defs>
  <linearGradient id="linearGradient2494" y2="-10.904" gradientUnits="userSpaceOnUse" x2="454.05" gradientTransform="matrix(.56595 0 0 .56597 -.96888 6.1714)" y1="893.74" x1="454.05">
   <stop style="stop-color:#3296ff" offset="0"/>
   <stop style="stop-color:#00c8ff" offset="1"/>
  </linearGradient>
 </defs>
 <path style="stroke-linejoin:round;fill-opacity:0;stroke:url(#linearGradient2494);stroke-linecap:round;stroke-width:37.5" d="m200.6 18.75c-30.934 0-56.04 25.471-56.04 56.488 0 19.386 9.9992 40.813 24.907 50.914l0.006 5.5743h-124.53c-13.798 0-26.188 15.319-26.188 29.155v121.36c10.27-12.922 27.113-21.462 44.861-21.462 30.934 0 56.544 25.173 56.544 56.191 0 31.017-25.61 56.191-56.544 56.191-17.748 0-34.591-8.5394-44.861-21.462v121.36c0 13.835 12.383 20.198 26.181 20.198h121.03c-12.888-10.298-21.404-21.133-21.404-38.928 0-31.017 25.106-56.191 56.04-56.191s56.04 25.174 56.04 56.191c0 17.796-8.5164 28.63-21.404 38.928h121.03c13.798 0 23.039-6.3672 23.039-20.202v-115.37l11.597 0.005c10.074 14.948 26.977 22.296 46.311 22.296 30.934 0 56.04-25.173 56.04-56.191 0-31.017-25.106-56.191-56.04-56.191-19.334 0-36.237 7.3525-46.311 22.3l-11.597-0.005v-129.01c0-13.835-9.2422-29.613-23.033-29.15h-124.53l-0.007-5.5743c14.907-10.101 24.907-31.528 24.907-50.914 0-31.017-25.106-56.488-56.04-56.488z"/>
</svg>
