<?xml version="1.0" encoding="UTF-8" standalone="no"?>
<svg xmlns:rdf="http://www.w3.org/1999/02/22-rdf-syntax-ns#" xmlns="http://www.w3.org/2000/svg" height="512" width="512" version="1.1" xmlns:cc="http://creativecommons.org/ns#" xmlns:xlink="http://www.w3.org/1999/xlink" xmlns:dc="http://purl.org/dc/elements/1.1/">
 <defs>
  <linearGradient id="linearGradient4341">
   <stop style="stop-color:#3296ff" offset="0"/>
   <stop style="stop-color:#00c8ff" offset="1"/>
  </linearGradient>
  <linearGradient id="linearGradient4162" y2=".0000099537" xlink:href="#linearGradient4341" gradientUnits="userSpaceOnUse" x2="256" gradientTransform="matrix(.96443 0 0 .96443 9.1057 9.1057)" y1="512" x1="256"/>
  <linearGradient id="linearGradient4164" y2=".0000099537" xlink:href="#linearGradient4341" gradientUnits="userSpaceOnUse" x2="256" gradientTransform="matrix(1 0 0 .97624 0 .44104)" y1="512" x1="256"/>
 </defs>
 <path d="m493.25 255.99c0 131.04-106.23 237.26-237.25 237.26-131.03 0-237.25-106.23-237.25-237.26s106.22-237.24 237.25-237.24c131.02 0 237.25 106.21 237.25 237.24z" style="fill-opacity:0;stroke:url(#linearGradient4162);stroke-width:37.5"/>
 <path style="stroke-linejoin:round;fill-opacity:0;stroke:url(#linearGradient4164);stroke-width:18.75" d="m261.71 19.224c-20.288-4.3995-50.305 18.293-62.367 3.3655-21.121 6.4788-43.987 13.262-59.3 30.149-13.986 12.832-7.8627 28.825 5.458 9.0975 15.09-26.771 36.127 20.732 48.803-1.5555-8.9881-7.2612-15.985-17.279-29.88-16.912 20.177-14.489 34.633-0.06324 44.271 17.376-9.3452 10.626-8.2957 32.903 10.386 33.211 10.446-18.707 32.53-26.369 53.198-29.87 3.912 20.046 29.375-12.471 5.381-4.8661 2.8697-14.558 20.421-36.76-8.2288-36.556l-4.5122-1.5002-3.2102-1.9406zm-119.63 45.796c19.684 22.813 24.699-17.361 0 0zm231.85-5.5125c-20.095 1.8945-47.006 22.203-44.585 41.652 14.177-4.7502 28.716 15.653 29.663-8.1022-4.4268-12.987 23.149-27.035 10.42-9.1543 20.784 14.682-13.566 41.343-29.727 27.195-5.207 3.8142-24.617 19.961-34.063 28.855 15.153 12.901-26.634 12.042-13.946 34.09 20.894 22.48 30.448-33.418 55.155-17.673 9.1995 4.12 10.124 29.414 15.825 8.2712-11.152-23.455 8.599 0.59552 12.085 9.7778 10.439 3.0467 7.3052-18.4 16.479-1.691 11.501 6.1931 40.091 14.674 15.788 24.672-23.946-5.5461-45.862 5.4785-64.028-14.042-25.176-11.062-53.444 9.0248-65.094 30.767-13.074 22.005-20.95 49.141-3.4532 70.427 9.5034 25.459 37.794 13.049 55.722 11.823 23.768 7.831 17.369 37.748 24.534 57.544-4.7197 26.586 2.4754 53.342 10.528 79.429-0.39902 30.109 42.783 6.7295 47.178-12.189 8.9597-10.168 9.8227-14.912 5.9085-26.015 15.984-11.097 28.742-23.483 19.365-43.866-1.6103-26.705 21.999-43.926 29.382-67.568 8.9406-17.383-23.294-5.1388-4.8855-18.308 11.553-9.1833 38.41-26.162 17.704-40.514-9.9634 20.001-29.721-29.656-10.983-10.681 11.393 0.90034 38.09 21.376 31.002-4.2486-9.9373-54.357-43.213-102.33-84.931-138.58-0.67717 22.098-36.532 5.1151-12.08 1.3168 8.6695-11.479-24.518-6.5509-28.963-13.189zm-262.42 5.513c-14.213 20.787-41.441 29.411-52.346 53.419-26.882 35.45-43.673 77.95-48.947 121.71 11.179 27.815 49.452 27.069 68.146 47.664 27.96 8.9832-14.458 38.128 0.65574 58.621 7.8048 23.274 39.014 34.247 37.58 61.808 2.7778 19.598-8.4937 53.46 22.164 55.881 15.534-3.2522 22.465-24.302 34.2-32.189 0.27454-19.12 14.308-30.544 26.598-39.845 0.24173-19.778 9.7976-38.026 12.418-55.602-16.363-14.948-41.465-17.901-54.219-37.776-16.32-8.2931-14.648-24.294-34.255-21.975-15.806-13.247-27.068 0.99366-39.916 6.7726-11.79-5.0014-9.7893-24.602-21.653-26.456 2.1652-11.694-2.4325-25.161-13.319-10.737-25.68 4.576-13.644-42.606 10.043-37.254 14.934-12.747 28.845 21.962 27.851-0.89659 13.275-21.975 30.824-41.762 53.671-54.367 28.103-5.5029 5.5975-15.188-4.7371-14.183 11.81-2.1063 36.25-17.762 40.56 0.72653 7.6882-12.652-14.638-30.758-16.911-36.462-10.36 1.9869-20.272-25.747-25.67-2.5834-7.4099 12.136-18.239 34.925-28.289 15.003-19.361-5.3714-13.964-20.007 2.8828-23.388 11.853-5.4784 28.882-27.732 3.4958-27.892zm187.31 20.354c4.0786 10.81 0.96068 49.627 18.034 27.096 0.35707-10.852-7.2124-23.599-18.034-27.096zm-9.6057 13.569c-25.02 7.3551 15.836 24.197 0 0zm127.94 111.53c13.502 16.889 27.588 37.291 29.912 58.137-7.2632 15.696-12.985-20.029-19.828-26.256-5.6551-9.4731-13.886-20.287-10.084-31.881z"/>
</svg>
