<?xml version="1.0" encoding="UTF-8" standalone="no"?>
<svg xmlns:rdf="http://www.w3.org/1999/02/22-rdf-syntax-ns#" xmlns="http://www.w3.org/2000/svg" height="512" width="512" version="1.1" xmlns:cc="http://creativecommons.org/ns#" xmlns:xlink="http://www.w3.org/1999/xlink" xmlns:dc="http://purl.org/dc/elements/1.1/">
 <defs>
  <linearGradient id="linearGradient4309">
   <stop style="stop-color:#3296ff" offset="0"/>
   <stop style="stop-color:#00c8ff" offset="1"/>
  </linearGradient>
  <linearGradient id="linearGradient4150" x1="256" xlink:href="#linearGradient4309" gradientUnits="userSpaceOnUse" y1="486" gradientTransform="matrix(.97785 0 0 .97746 5.6699 -6.156)" x2="256" y2="50.239"/>
  <linearGradient id="linearGradient4472" y2="-3.9729" xlink:href="#linearGradient4309" gradientUnits="userSpaceOnUse" x2="1922.7" gradientTransform="matrix(.27992 0 0 .27992 -282.2 37.255)" y1="1562.2" x1="1922.7"/>
  <linearGradient id="linearGradient4188" y2="43.275" xlink:href="#linearGradient4309" gradientUnits="userSpaceOnUse" x2="255.99" gradientTransform="matrix(.97785 0 0 .97746 5.6699 -6.156)" y1="491.8" x1="255.99"/>
 </defs>
 <path style="stroke:url(#linearGradient4188);stroke-width:48;fill-opacity:0" d="m50.548 111.87h410.89c14.705 0 26.544 11.183 26.544 25.075v288.54c0 13.892-11.839 25.075-26.544 25.075h-410.9c-14.706 0-26.544-11.183-26.544-25.075v-288.54c0-13.892 11.839-25.075 26.544-25.075z"/>
 <path style="stroke-linejoin:round;stroke:url(#linearGradient4188);stroke-width:48;fill-opacity:0" d="m24.005 136.94 0.000011-56.939c0.000002-10.288 7.121-18.57 15.966-18.57h125.51c8.8454 0 12.404 9.0905 15.966 18.57l11.969 31.867"/>
 <rect style="stroke:url(#linearGradient4150);stroke-width:32;fill-opacity:0" height="30.48" width="123.02" y="71.322" x="42.095"/>
 <path style="stroke:url(#linearGradient4472);stroke-width:48.001;stroke-linecap:round;fill-opacity:0" d="m255.99 209.56v143.32"/>
 <path style="stroke:url(#linearGradient4472);stroke-width:48.001;stroke-linecap:round;fill-opacity:0" d="m184.33 281.22h143.32"/>
</svg>
