<?xml version="1.0" encoding="UTF-8" standalone="no"?>
<svg xmlns:rdf="http://www.w3.org/1999/02/22-rdf-syntax-ns#" xmlns="http://www.w3.org/2000/svg" height="512" width="512" version="1.1" xmlns:cc="http://creativecommons.org/ns#" xmlns:xlink="http://www.w3.org/1999/xlink" xmlns:dc="http://purl.org/dc/elements/1.1/">
 <defs>
  <linearGradient id="linearGradient4399" y2="37.616" gradientUnits="userSpaceOnUse" x2="256" y1="473.8" x1="256">
   <stop style="stop-color:#3296ff" offset="0"/>
   <stop style="stop-color:#00c8ff" offset="1"/>
  </linearGradient>
 </defs>
 <g style="stroke:url(#linearGradient4399)">
  <path d="m45.895 108.55h146.1 64 210.1c15.038 0 27.145 11.441 27.145 25.653v295.19c0 14.212-12.107 25.653-27.145 25.653h-420.21c-15.039 0-27.145-11.441-27.145-25.653v-295.19c0-14.212 12.107-25.653 27.145-25.653z" style="fill-opacity:0;stroke:url(#linearGradient4399);stroke-width:37.5"/>
  <path d="m18.75 134.2 0.000011-58.252c0.000002-10.525 7.2823-18.998 16.328-18.998h128.35c9.0458 0 12.685 9.3001 16.328 18.998l12.24 32.602" style="stroke-linejoin:round;fill-opacity:0;stroke:url(#linearGradient4399);stroke-width:37.5"/>
  <rect style="fill-opacity:0;stroke:url(#linearGradient4399);stroke-width:31.25" height="31.183" width="125.81" y="67.064" x="37.25"/>
  <g style="stroke:url(#linearGradient4399);stroke-width:74.999" transform="matrix(.50001 0 0 .5 128 153.8)">
   <path style="stroke:url(#linearGradient4399);stroke-width:74.999;fill-opacity:0" d="m256 0.000003373v512"/>
   <path style="stroke:url(#linearGradient4399);stroke-width:74.999;fill-opacity:0" d="m-0.0003064 256h511.99"/>
  </g>
 </g>
</svg>
