<?xml version="1.0" encoding="UTF-8" standalone="no"?>
<svg xmlns:rdf="http://www.w3.org/1999/02/22-rdf-syntax-ns#" xmlns="http://www.w3.org/2000/svg" height="512" width="512" version="1.1" xmlns:cc="http://creativecommons.org/ns#" xmlns:xlink="http://www.w3.org/1999/xlink" xmlns:dc="http://purl.org/dc/elements/1.1/">
 <defs>
  <linearGradient id="linearGradient4732">
   <stop style="stop-color:#3296ff" offset="0"/>
   <stop style="stop-color:#00c8ff" offset="1"/>
  </linearGradient>
  <linearGradient id="linearGradient4726" y2="-464" gradientUnits="userSpaceOnUse" x2="256" y1="48" x1="256">
   <stop style="stop-color:#3296ff" offset="0"/>
   <stop style="stop-color:#00c8ff" offset="1"/>
  </linearGradient>
  <linearGradient id="linearGradient4647" y2="-467.34" xlink:href="#linearGradient4732" gradientUnits="userSpaceOnUse" x2="256" gradientTransform="matrix(.98711 0 0 .98711 3.2989 -2.6803)" y1="51.342" x1="256"/>
  <linearGradient id="linearGradient4649" y2="-464" xlink:href="#linearGradient4732" gradientUnits="userSpaceOnUse" x2="256" y1="48" x1="256"/>
 </defs>
 <g transform="translate(0,464)">
  <path style="stroke-linejoin:round;fill-opacity:0;stroke:url(#linearGradient4647);stroke-width:48" d="m26.631-214.19 111.59-111.59l55.794-55.794 55.794-55.794c3.7724-3.7724 9.8463-3.7724 13.619 0l221.94 221.94c3.7724 3.7724 3.7724 9.8462 0 13.619l-223.18 223.18c-3.7724 3.7724-9.8462 3.7724-13.619 0l-221.94-221.94c-3.7724-3.7724-3.7724-9.8463 0-13.619z"/>
  <path style="stroke:url(#linearGradient4649);stroke-width:31.25;fill:none" d="m191.8-387.78 169.9 169.9-105.5 105.5"/>
  <g style="fill:url(#linearGradient4726)">
   <circle cx="361.7" style="fill:url(#linearGradient4726);fill-rule:evenodd" r="48" cy="-217.88"/>
   <circle cx="256.49" cy="-323.09" r="48" style="fill:url(#linearGradient4726);fill-rule:evenodd"/>
   <circle cx="256.19" style="fill:url(#linearGradient4726);fill-rule:evenodd" r="48" cy="-112.38"/>
  </g>
 </g>
</svg>
