<?xml version="1.0" encoding="UTF-8" standalone="no"?>
<svg xmlns:rdf="http://www.w3.org/1999/02/22-rdf-syntax-ns#" xmlns="http://www.w3.org/2000/svg" height="512" width="512" version="1.1" xmlns:cc="http://creativecommons.org/ns#" xmlns:xlink="http://www.w3.org/1999/xlink" viewBox="0 0 512.00001 512.00001" xmlns:dc="http://purl.org/dc/elements/1.1/">
 <defs>
  <linearGradient id="linearGradient4154">
   <stop style="stop-color:#3296ff" offset="0"/>
   <stop style="stop-color:#00c8ff" offset="1"/>
  </linearGradient>
  <linearGradient id="linearGradient4150" x1="256.01" xlink:href="#linearGradient4154" gradientUnits="userSpaceOnUse" y1="1087.2" gradientTransform="matrix(.88015 0 0 .88012 30.673 -444.88)" x2="256.01" y2="505.49"/>
  <linearGradient id="linearGradient4152" x1="240.89" xlink:href="#linearGradient4154" gradientUnits="userSpaceOnUse" y1="1083.8" gradientTransform="matrix(.94007 0 0 .94003 29.549 -506.81)" x2="240.89" y2="539.15"/>
  <linearGradient id="linearGradient4263" x1="240.89" gradientUnits="userSpaceOnUse" y1="1083.8" gradientTransform="matrix(.94007 0 0 .94003 29.549 -506.81)" x2="240.89" y2="539.15">
   <stop style="stop-color:#3296ff;stop-opacity:.75294" offset="0"/>
   <stop style="stop-color:#00c8ff;stop-opacity:.25098" offset="1"/>
  </linearGradient>
 </defs>
 <path d="m31.329 464.84c23.032 23.032 69.909-18.345 78.923-40.643 12.024-30.11 19.274-67.783 26.6-104.93 7.3253-37.15 14.725-73.778 24.941-99.395 5.1082-12.808 10.943-22.687 16.658-28.547 5.7152-5.8602 10.389-8.0547 17.33-8.0547 9.9452 0 19.327 5.6909 30.105 17.924 10.779 12.233 21.526 30.108 32.35 48.633s21.721 37.683 34.834 53.262c13.113 15.578 29.924 28.781 51.314 28.781 15.109 0 28.656-7.3496 38.357-17.723 9.7012-10.373 16.651-23.591 22.605-38.568 11.909-29.954 19.644-67.562 27.527-104.69 7.8832-37.125 15.92-73.762 26.479-99.471 5.279-12.854 11.222-22.815 16.951-28.729 5.7294-5.913 10.264-8.0195 16.684-8.0195l-0.00092 430.17z" style="color-rendering:auto;text-decoration-color:#000000;color:#000000;isolation:auto;mix-blend-mode:normal;fill-rule:evenodd;shape-rendering:auto;solid-color:#000000;block-progression:tb;text-decoration-line:none;image-rendering:auto;white-space:normal;text-indent:0;text-transform:none;text-decoration-style:solid;fill:url(#linearGradient4263)"/>
 <path d="m51.869 24.342v463.32m-27.532-27.532 463.32 0.0001" style="stroke-linejoin:round;stroke:url(#linearGradient4150);stroke-linecap:round;stroke-width:48;fill:none"/>
 <path d="m55.671 456.46c86.627 0 56.423-286.03 142.94-286.03 61.538 0 85.625 143.02 142.94 143.02 80.834 0 59.297-286.03 142.94-286.03" style="stroke-linejoin:round;stroke:url(#linearGradient4152);stroke-linecap:round;stroke-width:48;fill:none"/>
 <path d="m492.99 464.84v-560.22" style="opacity:.25;fill:none"/>
</svg>
