<?xml version="1.0" encoding="UTF-8" standalone="no"?>
<svg xmlns:rdf="http://www.w3.org/1999/02/22-rdf-syntax-ns#" xmlns="http://www.w3.org/2000/svg" height="512" width="512" version="1.1" xmlns:cc="http://creativecommons.org/ns#" xmlns:xlink="http://www.w3.org/1999/xlink" viewBox="0 0 512.00001 512.00001" xmlns:dc="http://purl.org/dc/elements/1.1/">
 <defs>
  <linearGradient id="linearGradient4142">
   <stop style="stop-color:#3296ff" offset="0"/>
   <stop style="stop-color:#00c8ff" offset="1"/>
  </linearGradient>
  <linearGradient id="linearGradient4148" y2="572.43" xlink:href="#linearGradient4142" gradientUnits="userSpaceOnUse" x2="241.66" y1="1114.8" x1="241.66"/>
  <linearGradient id="linearGradient4156" y2="540.36" gradientUnits="userSpaceOnUse" x2="256" gradientTransform="matrix(.96717 0 0 .96717 8.4058 26.149)" y1="1052.4" x1="256">
   <stop style="stop-color:#3296ff" offset="0"/>
   <stop style="stop-color:#00c8ff" offset="1"/>
  </linearGradient>
  <linearGradient id="linearGradient4144" y2="572.43" xlink:href="#linearGradient4142" gradientUnits="userSpaceOnUse" x2="241.66" gradientTransform="matrix(1.0667 0 0 1.0667 -16.11 -56.242)" y1="1114.8" x1="241.66"/>
 </defs>
 <g transform="translate(0 -540.36)">
  <circle r="232.48" style="stroke:url(#linearGradient4156);stroke-width:47.035;fill:none" cx="256" cy="796.36"/>
  <g style="fill:url(#linearGradient4148)" transform="matrix(.90801 0 0 .94398 36.571 0)">
   <path style="fill:url(#linearGradient4144)" d="m240.34 929.93h-9.8293q1.6782-30.207 7.4319-49.866 5.9935-19.898 24.453-55.14 14.384-27.091 18.7-41.475 4.3153-14.624 4.3153-29.488 0-30.447-16.302-48.427-16.063-17.98-39.557-17.98-20.857 0-32.844 9.8293t-11.987 21.337q0 8.8704 7.1922 21.816t7.1922 19.659q0 8.6306-5.514 14.624-5.514 5.7538-13.425 5.7538-10.069 0-18.46-9.8293-8.1512-10.069-8.1512-27.81 0-27.091 23.255-47.948t63.052-20.857q49.386 0 72.641 28.769 17.261 21.097 17.261 46.749 0 17.501-7.9114 35.961-7.6717 18.46-29.488 43.393-34.762 39.317-42.674 55.859-7.6717 16.302-9.3499 45.071zm-3.3564 29.728q11.268 0 18.939 7.9114 7.9114 7.6717 7.9114 18.939 0 11.028-7.9114 18.939-7.9114 7.6717-18.939 7.6717t-18.939-7.6717q-7.6717-7.9114-7.6717-18.939 0-11.268 7.6717-18.939 7.9114-7.9114 18.939-7.9114z"/>
  </g>
 </g>
</svg>
