<?xml version="1.0" encoding="UTF-8" standalone="no"?>
<svg xmlns:rdf="http://www.w3.org/1999/02/22-rdf-syntax-ns#" xmlns="http://www.w3.org/2000/svg" height="512" width="512" version="1.1" xmlns:cc="http://creativecommons.org/ns#" xmlns:xlink="http://www.w3.org/1999/xlink" viewBox="0 0 512 512" xmlns:dc="http://purl.org/dc/elements/1.1/">
 <defs>
  <linearGradient id="linearGradient4245">
   <stop style="stop-color:#3296ff" offset="0"/>
   <stop style="stop-color:#00c8ff" offset="1"/>
  </linearGradient>
  <linearGradient id="linearGradient4253" x1="262.72" xlink:href="#linearGradient4245" gradientUnits="userSpaceOnUse" y1="66.258" gradientTransform="translate(-128.35 479.15)" x2="384.15" y2="-386.61"/>
  <linearGradient id="linearGradient4255" x1="270.95" xlink:href="#linearGradient4245" gradientUnits="userSpaceOnUse" y1="-3.9502" gradientTransform="translate(-.00030651 496)" x2="270.95" y2="-472.77"/>
  <linearGradient id="linearGradient4257" x1="262.74" xlink:href="#linearGradient4245" gradientUnits="userSpaceOnUse" y1="66.311" gradientTransform="matrix(.99999 0 0 1 -128.16 479.14)" x2="384.07" y2="-386.53"/>
  <linearGradient id="linearGradient4164" y2="-472.77" xlink:href="#linearGradient4245" gradientUnits="userSpaceOnUse" x2="270.95" gradientTransform="matrix(.95988 0 0 .95906 8.6416 487.05)" y1="-3.9502" x1="270.95"/>
 </defs>
 <g style="fill-opacity:0" transform="matrix(.15974 -.000317 .00031447 .16102 -96.425 429.98)"></g>
 <path d="m317.22 408.24-209.94 56.161c-4.5798 1.2276-9.3869-1.8414-10.794-7.0587l-72.148-268.81c-1.406-5.24 1.139-10.44 5.706-11.67l324.12-86.7c4.5669-1.2215 9.3752 2.0133 10.781 7.2502l42.674 158.18" style="fill-opacity:0;stroke:url(#linearGradient4164);stroke-width:48"/>
 <ellipse style="stroke:url(#linearGradient4257);stroke-width:48;stroke-linecap:round;fill-opacity:0" rx="24.031" ry="24.031" transform="rotate(-15)" cy="275.94" cx="74.715"/>
 <path d="m104.19 464.96 60.673-71.549 62.412 26.132 25.465-25.673 61.327 13.03" style="stroke:url(#linearGradient4255);stroke-width:48;fill-opacity:0"/>
 <ellipse style="stroke:url(#linearGradient4253);stroke-width:32;fill-opacity:0" rx="98.9" ry="98.832" transform="matrix(.96598 -.25863 .25901 .96587 0 0)" cy="440.43" cx="292.77"/>
 <path d="m355.65 439.68 32.029-136.43 107.24 61.251" style="stroke:url(#linearGradient4255);stroke-width:32;fill-opacity:0"/>
 <path d="m382.37 447.68 28.128-38.394 24.621 7.0406 8.1347-24.541 41.142 4.6173" style="stroke:url(#linearGradient4255);stroke-width:48;fill-opacity:0"/>
 <path d="m87.264 155.2v-104.95c0-6.0371 3.1864-10.898 7.1443-10.898h353.09c3.9581 0 7.1443 4.8605 7.1443 10.898v219.32" style="stroke:url(#linearGradient4255);stroke-width:32;fill-opacity:0"/>
</svg>
