<?xml version="1.0" encoding="UTF-8" standalone="no"?>
<svg xmlns:rdf="http://www.w3.org/1999/02/22-rdf-syntax-ns#" xmlns="http://www.w3.org/2000/svg" height="512" width="512" version="1.1" xmlns:cc="http://creativecommons.org/ns#" xmlns:xlink="http://www.w3.org/1999/xlink" viewBox="0 0 512.00001 512.00001" xmlns:dc="http://purl.org/dc/elements/1.1/">
 <defs>
  <linearGradient id="linearGradient4174">
   <stop style="stop-color:#3296ff" offset="0"/>
   <stop style="stop-color:#00c8ff" offset="1"/>
  </linearGradient>
  <linearGradient id="linearGradient4159" y2="531.12" gradientUnits="userSpaceOnUse" x2="256" gradientTransform="matrix(.96516 0 0 .96516 8.9194 27.746)" y1="1061.6" x1="256">
   <stop style="stop-color:#3296ff" offset="0"/>
   <stop style="stop-color:#00c8ff" offset="1"/>
  </linearGradient>
  <linearGradient id="linearGradient4161" y2="542.93" xlink:href="#linearGradient4174" gradientUnits="userSpaceOnUse" x2="220.52" gradientTransform="matrix(1.0133 0 0 1.0133 32.501 -9.7572)" y1="1048.2" x1="220.52"/>
  <linearGradient id="linearGradient4148" y2="540.36" xlink:href="#linearGradient4174" gradientUnits="userSpaceOnUse" x2="256" gradientTransform="matrix(1.0133 0 0 1.0133 32.501 -9.7572)" y1="1052.4" x1="256"/>
 </defs>
 <g transform="translate(0 -540.36)">
  <circle cx="256" cy="796.36" r="232" style="fill-opacity:0;stroke:url(#linearGradient4159);stroke-width:48"/>
  <g style="stroke:url(#linearGradient4161);stroke-width:1px;fill:url(#linearGradient4161)" transform="matrix(1 0 0 .99995 .034721 -.0000057455)">
   <path d="m212.34 763.38q31.437-8.0789 51.108-8.0789 11.767 0 18.265 4.2151 6.6739 4.0394 6.6739 12.821 0 3.6882-0.70251 7.2008l-23.007 110.65q-0.87814 4.5663-0.87814 6.6739 0 7.0251 5.7957 9.3083 5.7957 2.1075 21.427 2.1075l-1.0538 8.2545q-30.032 7.3764-48.473 7.3764-12.996 0-20.373-5.0932-7.2008-5.0932-7.2008-15.455 0-4.9176 1.405-12.294l21.075-101.86q1.405-7.0251 1.405-9.1327 0-4.742-4.0394-6.6739t-22.48-1.9319l1.0538-8.0789zm88.341-69.9q0 11.943-7.3764 19.495-7.3764 7.3764-18.441 7.3764-10.713 0-17.738-7.0251-7.0251-7.0251-7.0251-17.914 0-12.294 7.3764-19.319 7.3764-7.2008 18.617-7.2008 10.713 0 17.563 6.6739 7.0251 6.4982 7.0251 17.914z" style="stroke:url(#linearGradient4148);stroke-width:1px;fill:url(#linearGradient4148)"/>
  </g>
 </g>
</svg>
