<?xml version="1.0" encoding="UTF-8" standalone="no"?>
<svg xmlns:rdf="http://www.w3.org/1999/02/22-rdf-syntax-ns#" xmlns="http://www.w3.org/2000/svg" height="512" width="512" version="1.1" xmlns:cc="http://creativecommons.org/ns#" xmlns:xlink="http://www.w3.org/1999/xlink" xmlns:dc="http://purl.org/dc/elements/1.1/">
 <defs>
  <linearGradient id="linearGradient4204">
   <stop style="stop-color:#3296ff" offset="0"/>
   <stop style="stop-color:#00c8ff" offset="1"/>
  </linearGradient>
  <linearGradient id="linearGradient4140" y2=".000087860" xlink:href="#linearGradient4204" gradientUnits="userSpaceOnUse" x2="256" gradientTransform="matrix(.98669 0 0 .98685 3.4083 3.3691)" y1="512" x1="256"/>
  <linearGradient id="linearGradient4142" y2=".000087860" xlink:href="#linearGradient4204" gradientUnits="userSpaceOnUse" x2="256" y1="512" x1="256"/>
 </defs>
 <g transform="matrix(.97728 0 0 .97763 5.816 5.7302)">
  <path style="stroke-width:49.107;fill-opacity:0;color:#bebebe;stroke:url(#linearGradient4140);stroke-linecap:round" d="m185.11 391.83c-16.084-8.4313-51.892-16.391-73.307-10.82-38.645 10.052-62.861 42.54-54.577 72.552 8.2838 30.013 46.353 46.776 84.997 36.724 30.83-8.0197 52.082-30.711 55.472-54.638l0.8947-320.66c0.0468-16.756 12.525-37.033 28.73-41.226l211.15-54.638c10.283 1.7344 17.894 10.959 17.894 23.288l-0.89471 320.66c-3.3894 23.928-24.641 46.619-55.472 54.638-38.645 10.052-76.713-6.7114-84.997-36.724-8.2838-30.013 15.933-62.5 54.577-72.552 21.416-5.5707 57.223 2.3891 73.307 10.82"/>
  <ellipse style="fill-opacity:0;stroke:url(#linearGradient4142);stroke-linecap:round;stroke-width:63.942" rx="43.872" ry="31.117" cy="436.52" cx="126.35"/>
  <ellipse style="fill-opacity:0;stroke:url(#linearGradient4142);stroke-linecap:round;stroke-width:63.942" rx="43.872" ry="31.117" cy="363.9" cx="385.9"/>
  <path d="m198.59 162.99c0.0468-16.756 12.525-37.033 28.73-41.226l211.15-54.638c10.283 1.7344 17.894 10.959 17.894 23.288" style="fill-opacity:0;color:#bebebe;stroke:url(#linearGradient4140);stroke-linecap:round;stroke-width:49.107"/>
 </g>
</svg>
