<?xml version="1.0" encoding="UTF-8" standalone="no"?>
<svg xmlns:rdf="http://www.w3.org/1999/02/22-rdf-syntax-ns#" xmlns="http://www.w3.org/2000/svg" height="512" width="512" version="1.1" xmlns:cc="http://creativecommons.org/ns#" xmlns:xlink="http://www.w3.org/1999/xlink" viewBox="0 0 512.00001 512.00001" xmlns:dc="http://purl.org/dc/elements/1.1/">
 <defs>
  <linearGradient id="linearGradient4138">
   <stop style="stop-color:#3296ff" offset="0"/>
   <stop style="stop-color:#00c8ff" offset="1"/>
  </linearGradient>
  <linearGradient id="linearGradient5022" y2="540.36" xlink:href="#linearGradient4138" gradientUnits="userSpaceOnUse" x2="257.44" y1="1052.4" x1="257.44"/>
  <linearGradient id="linearGradient5024" y2=".000022617" xlink:href="#linearGradient4138" gradientUnits="userSpaceOnUse" x2="257.44" y1="512" x1="257.44"/>
 </defs>
 <g transform="translate(0 -540.36)">
  <g style="fill:url(#linearGradient5022)">
   <path d="m398.04 542.38c-5.065-0.0718-9.9435 1.9085-13.525 5.4902l-317.16 317.38c3.6405-3.526 8.3359-5.4283 13.402-5.2734 0.6252 0.0196 1.249 0.0704 1.8691 0.15234 0 0 13.363 2.0266 31.455 11.209l289.22-289.23c1.5594 0.55853 2.5018 0.7633 4.6816 1.7129 8.8437 3.8525 21.499 11.13 35.457 25.088s21.235 26.611 25.088 35.455c0.94972 2.1801 1.1563 3.1221 1.7148 4.6816l-289.23 289.23c9.1831 18.093 11.211 31.457 11.211 31.457 0.75832 5.7773-1.582 11.579-5.702 15.699l317.96-317.59c4.0442-4.0447 6.0212-9.7141 5.3691-15.396 0 0-1.3703-10.274-6.9394-23.059-5.5692-12.784-15.552-29.597-32.951-46.996s-34.212-27.382-46.996-32.951c-12.784-5.5692-23.059-6.9395-23.059-6.9395-0.62129-0.0715-1.2458-0.11195-1.8711-0.12109z" style="color-rendering:auto;text-decoration-color:#000000;color:#000000;shape-rendering:auto;solid-color:#000000;text-decoration-line:none;fill:url(#linearGradient5022);fill-rule:evenodd;mix-blend-mode:normal;block-progression:tb;text-indent:0;image-rendering:auto;white-space:normal;text-decoration-style:solid;isolation:auto;text-transform:none"/>
   <path d="m82.777 857.96a18.752 18.752 0 0 0 -17.955 11.713l-63.457 156.93a18.752 18.752 0 0 0 24.412 24.412l156.91-63.46a18.752 18.752 0 0 0 11.561 -19.824s-5.4638-36.226-39.422-70.184-70.184-39.422-70.184-39.422a18.752 18.752 0 0 0 -1.8691 -0.15235zm10.479 41.426c8.8797 3.7678 21.313 10.92 35.057 24.664s20.896 26.179 24.664 35.059l-100.28 40.55 40.556-100.28z" style="color-rendering:auto;text-decoration-color:#000000;color:#000000;shape-rendering:auto;solid-color:#000000;text-decoration-line:none;fill:url(#linearGradient5022);fill-rule:evenodd;mix-blend-mode:normal;block-progression:tb;text-indent:0;image-rendering:auto;white-space:normal;text-decoration-style:solid;isolation:auto;text-transform:none"/>
   <path style="color-rendering:auto;text-decoration-color:#000000;color:#000000;shape-rendering:auto;solid-color:#000000;text-decoration-line:none;fill:url(#linearGradient5024);fill-rule:evenodd;mix-blend-mode:normal;block-progression:tb;text-indent:0;image-rendering:auto;white-space:normal;text-decoration-style:solid;isolation:auto;text-transform:none" d="m371.48 71.321-28.285 28.285c1.2229 0.45498 4.1029 1.7056 5.6995 2.3914 8.6119 3.6989 21.245 10.928 35.715 25.398s21.698 27.103 25.396 35.715c0.68644 1.5982 1.8572 4.1491 2.3125 5.3729l28.287-28.287c-5.98-11.17-15.73-25.55-29.49-39.31-13.76-13.762-28.47-23.591-39.64-29.559z" transform="translate(0 540.36)"/>
  </g>
 </g>
</svg>
