<?xml version="1.0" encoding="UTF-8" standalone="no"?>
<svg
   xmlns:dc="http://purl.org/dc/elements/1.1/"
   xmlns:cc="http://creativecommons.org/ns#"
   xmlns:rdf="http://www.w3.org/1999/02/22-rdf-syntax-ns#"
   xmlns:svg="http://www.w3.org/2000/svg"
   xmlns="http://www.w3.org/2000/svg"
   xmlns:sodipodi="http://sodipodi.sourceforge.net/DTD/sodipodi-0.dtd"
   xmlns:inkscape="http://www.inkscape.org/namespaces/inkscape"
   height="512"
   width="512"
   version="1.1"
   id="svg2"
   inkscape:version="0.91 r13725"
   sodipodi:docname="Photos.svg">
  <metadata
     id="metadata17">
    <rdf:RDF>
      <cc:Work
         rdf:about="">
        <dc:format>image/svg+xml</dc:format>
        <dc:type
           rdf:resource="http://purl.org/dc/dcmitype/StillImage" />
      </cc:Work>
    </rdf:RDF>
  </metadata>
  <sodipodi:namedview
     pagecolor="#ffffff"
     bordercolor="#666666"
     borderopacity="1"
     objecttolerance="10"
     gridtolerance="10"
     guidetolerance="10"
     inkscape:pageopacity="0"
     inkscape:pageshadow="2"
     inkscape:window-width="640"
     inkscape:window-height="480"
     id="namedview15"
     showgrid="false"
     inkscape:zoom="1.9140625"
     inkscape:cx="147.85306"
     inkscape:cy="256"
     inkscape:current-layer="svg2" />
  <title
     id="title4">elementary Symbolic Icon Theme</title>
  <defs
     id="defs6">
    <linearGradient
       id="linearGradient4139"
       y2="-1080"
       gradientUnits="userSpaceOnUse"
       x2="1029"
       gradientTransform="matrix(0.98719335,0,0,0.98716922,-759.82217,1069.4275)"
       y1="-568"
       x1="1029">
      <stop
         style="stop-color:#3296ff"
         offset="0"
         id="stop9" />
      <stop
         style="stop-color:#00c8ff"
         offset="1"
         id="stop11" />
    </linearGradient>
  </defs>
  <path
     d="M 393.06171,133.31466 329.26928,23.255168 c -3.12082,-5.404751 -9.2119,-8.23773 -15.02114,-7.50989 -1.93776,0.240277 -3.8313,0.838107 -5.63282,1.877497 l -152.08701,88.241085 -50.69633,29.10076 -82.616236,47.87573 c -7.206808,4.16053 -9.793748,13.44623 -5.632926,20.65257 L 135.36486,406.46478 m 15.52657,-270.56334 c -8.32174,0 -15.02113,6.69883 -15.02113,15.01978 l 0,330.43516 c 0,8.32104 6.69939,15.01978 15.02113,15.01978 l 330.46298,0 c 8.32174,0 15.02113,-6.69884 15.02113,-15.01978 l 0,-330.43516 c 0,-8.32104 -6.69939,-15.01978 -15.02113,-15.01978 z m 45.06341,60.07912 240.34209,0 0,210.27692 -240.34209,0 z"
     style="color:#000000;fill-opacity:0;stroke:url(#linearGradient4139);stroke-width:31.25;stroke-miterlimit:4;stroke-dasharray:none"
     id="path13"
     inkscape:connector-curvature="0" />
</svg>
