<?xml version="1.0" encoding="UTF-8" standalone="no"?>
<svg xmlns:rdf="http://www.w3.org/1999/02/22-rdf-syntax-ns#" xmlns="http://www.w3.org/2000/svg" height="512" width="512" version="1.1" xmlns:cc="http://creativecommons.org/ns#" xmlns:xlink="http://www.w3.org/1999/xlink" viewBox="0 0 511.99999 511.99999" xmlns:dc="http://purl.org/dc/elements/1.1/">
 <defs>
  <linearGradient id="linearGradient4196">
   <stop style="stop-color:#3296ff" offset="0"/>
   <stop style="stop-color:#00c8ff" offset="1"/>
  </linearGradient>
  <linearGradient id="linearGradient4202" x1="-977.42" xlink:href="#linearGradient4196" gradientUnits="userSpaceOnUse" x2="-665.21" gradientTransform="matrix(1.1224 0 0 1.1096 575.98 -98.266)" y1="-69.343" y2="246.47"/>
  <linearGradient id="linearGradient4201" y2="729.64" xlink:href="#linearGradient4196" gradientUnits="userSpaceOnUse" x2="215.08" gradientTransform="matrix(1.075 0 0 1.075 -42.858 -610.69)" y1="1080.1" x1="-135.34"/>
  <linearGradient id="linearGradient4217" y2="650.23" xlink:href="#linearGradient4196" gradientUnits="userSpaceOnUse" x2="56.377" gradientTransform="translate(223.54 -643.04)" y1="1145.8" x1="56.377"/>
 </defs>
 <path style="stroke-linejoin:round;stroke:url(#linearGradient4201);stroke-width:48;fill:none" transform="matrix(.70710 -.70711 .70710 .70711 0 0)" d="m54.808 136.54a232.08 232.08 0 0 1 175.65 252.95 232.08 232.08 0 0 1 -230.12 204.65 232.08 232.08 0 0 1 -230.71 -203.99 232.08 232.08 0 0 1 174.92 -253.45"/>
 <ellipse style="stroke:url(#linearGradient4202);stroke-width:48;fill-opacity:0" rx="56.471" transform="rotate(225)" ry="55.827" cy=".0027594" cx="-129.98"/>
 <path style="stroke:url(#linearGradient4217);stroke-width:48;fill:none" d="m459.97 438.61-79.694 21.354 21.354-79.694z"/>
</svg>
