<?xml version="1.0" encoding="UTF-8" standalone="no"?>
<svg xmlns:rdf="http://www.w3.org/1999/02/22-rdf-syntax-ns#" xmlns="http://www.w3.org/2000/svg" height="512" width="512" version="1.1" xmlns:cc="http://creativecommons.org/ns#" xmlns:xlink="http://www.w3.org/1999/xlink" viewBox="0 0 511.99999 511.99999" xmlns:dc="http://purl.org/dc/elements/1.1/">
 <defs>
  <linearGradient id="linearGradient4196">
   <stop style="stop-color:#3296ff" offset="0"/>
   <stop style="stop-color:#00c8ff" offset="1"/>
  </linearGradient>
  <linearGradient id="linearGradient4192" y2="540.36" xlink:href="#linearGradient4196" gradientUnits="userSpaceOnUse" x2="254.73" y1="1052.4" x1="254.73"/>
  <linearGradient id="linearGradient4194" y2="540.36" gradientUnits="userSpaceOnUse" x2="257.27" y1="1052.4" x1="261.5">
   <stop style="stop-color:#3296ff" offset="0"/>
   <stop style="stop-color:#00c8ff" offset="1"/>
  </linearGradient>
  <linearGradient id="linearGradient4202" y2="262.7" xlink:href="#linearGradient4196" gradientUnits="userSpaceOnUse" x2="-540.36" y1="262.7" x1="-1052.4"/>
 </defs>
 <g transform="translate(0 -540.36)">
  <g style="stroke:url(#linearGradient4192)">
   <path style="fill-opacity:0;stroke:url(#linearGradient4194);stroke-width:37.5" d="m423.87 964.17a237.35 237.34 0 0 1 -317.8 16.14 237.35 237.34 0 0 1 -48.248 -314.51"/>
   <path style="fill-opacity:0;stroke:url(#linearGradient4192);stroke-width:37.5" d="m126.89 597.23a237.35 237.34 0 0 1 313.61 49.885 237.35 237.34 0 0 1 -16.69 317.1"/>
   <ellipse style="fill-opacity:0;stroke:url(#linearGradient4202);stroke-width:37.5" rx="50.314" ry="50.315" transform="rotate(-90)" cy="88.566" cx="-628.99"/>
   <path style="fill-opacity:0;stroke:url(#linearGradient4192);stroke-width:66.315" d="m490.77 1004.1h-128l64-110.85z" transform="matrix(.54622 -.14636 .14636 .54622 53.14 494.42)"/>
  </g>
 </g>
</svg>
