<?xml version="1.0" encoding="UTF-8" standalone="no"?>
<svg xmlns:rdf="http://www.w3.org/1999/02/22-rdf-syntax-ns#" xmlns="http://www.w3.org/2000/svg" height="512" width="512" version="1.1" xmlns:cc="http://creativecommons.org/ns#" xmlns:xlink="http://www.w3.org/1999/xlink" viewBox="0 0 512.00001 512.00001" xmlns:dc="http://purl.org/dc/elements/1.1/">
 <defs>
  <linearGradient id="linearGradient4371">
   <stop style="stop-color:#3296ff" offset="0"/>
   <stop style="stop-color:#00c8ff" offset="1"/>
  </linearGradient>
  <linearGradient id="linearGradient4178" y2="-440.57" xlink:href="#linearGradient4371" gradientUnits="userSpaceOnUse" y1="71.429" gradientTransform="translate(506.86 440.57)" x2="-250.86" x1="-250.86"/>
  <linearGradient id="linearGradient4369" y2="540.36" xlink:href="#linearGradient4371" gradientUnits="userSpaceOnUse" x2="256" y1="1052.4" x1="256"/>
 </defs>
 <g transform="translate(0 -540.36)">
  <g transform="translate(-3.9612e-7 540.36)">
   <g transform="translate(0,496)">
    <path d="m330.08 720.5a149.42 148.88 0 0 1 -149.41 148.88 149.42 148.88 0 0 1 -149.42 -148.88 149.42 148.88 0 0 1 149.42 -148.89 149.42 148.88 0 0 1 149.41 148.89z" style="stroke-linejoin:round;fill-opacity:0;stroke:url(#linearGradient4369);stroke-width:62.5" transform="translate(3.9612e-7 -1036.4)"/>
    <path style="fill:url(#linearGradient4178)" d="m332.27 277.84c-17.197 21.439-33.41 40.007-52.976 53.02 12.511 2.9167 29.376 1.1218 37.904 10.379 8.5285 9.257-3.843 35.061 13.98 51.07l110.85 112.32s20.562 21.961 52.59-9.9492 9.9863-52.398 9.9863-52.398l-110.85-112.31c-16.069-17.758-42.117-5.8997-51.26-13.93-9.1432-8.03-9.6279-26.325-10.225-38.193z" transform="translate(3.9612e-7 -496)"/>
   </g>
  </g>
 </g>
</svg>
