<?xml version="1.0" encoding="UTF-8" standalone="no"?>
<svg xmlns:rdf="http://www.w3.org/1999/02/22-rdf-syntax-ns#" xmlns="http://www.w3.org/2000/svg" height="512" width="512" version="1.0" xmlns:cc="http://creativecommons.org/ns#" xmlns:xlink="http://www.w3.org/1999/xlink" xmlns:dc="http://purl.org/dc/elements/1.1/">
 <defs>
  <linearGradient id="linearGradient4179">
   <stop style="stop-color:#3296ff" offset="0"/>
   <stop style="stop-color:#00c8ff" offset="1"/>
  </linearGradient>
  <linearGradient id="linearGradient4185" y2="-450" xlink:href="#linearGradient4179" gradientUnits="userSpaceOnUse" x2="256" y1="62" x1="256"/>
  <linearGradient id="linearGradient4146" y2="-450" xlink:href="#linearGradient4179" gradientUnits="userSpaceOnUse" x2="256" gradientTransform="matrix(.98382 0 0 .98382 4.1425 -3.1392)" y1="62" x1="256"/>
 </defs>
 <g transform="translate(0 450)">
  <path style="stroke-linejoin:round;fill-opacity:0;stroke:url(#linearGradient4146);stroke-linecap:round;stroke-width:37.5" d="m477.09-247.02h-18.72c-5.0524 0-10.894-4.2053-12.501-8.993-0.0894-0.24856-11.618-28.152-11.618-28.152-2.3725-4.7722-1.2252-11.862 2.3454-15.435l13.236-13.237c3.0416-3.0443 4.7218-7.1058 4.7218-11.435 0-4.3256-1.6803-8.3872-4.7218-11.431l-52.115-52.113c-3.0416-3.0443-7.1021-4.7217-11.431-4.7217-4.329 0-8.3895 1.6774-11.431 4.7217l-13.236 13.233c-3.5705 3.5685-10.665 4.7178-15.18 2.4618-0.25275-0.11649-28.16-11.641-28.16-11.641-5.0407-1.7007-9.2452-7.5407-9.2452-12.592v-18.724c-0.0115-8.9192-7.2655-16.173-16.18-16.173h-73.697c-8.9185 0-16.172 7.2534-16.172 16.173v18.724c0 5.0518-4.2045 10.896-8.9924 12.499-0.24884 0.0932-28.156 11.618-28.156 11.618-4.7723 2.3725-11.867 1.2231-15.437-2.3453l-13.236-13.233c-3.0454-3.0443-7.106-4.7217-11.435-4.7217s-8.3895 1.6813-11.431 4.7217l-52.118 52.113c-6.3048 6.306-6.3048 16.565 0 22.867l13.236 13.237c3.5666 3.5685 4.7179 10.663 2.462 15.182-0.11666 0.25243-11.645 28.159-11.645 28.159-1.6997 5.0401-7.5377 9.2415-12.59 9.2415h-13.87c-8.907 0-21.015 7.26-21.015 16.17v73.695c0 8.9153 7.2538 16.169 16.172 16.169h18.724c5.0524 0 10.894 4.2014 12.497 8.993 0.09332 0.24839 11.622 28.152 11.622 28.152 2.3726 4.7722 1.2213 11.866-2.3453 15.439l-13.236 13.237c-6.3048 6.3021-6.3048 16.565 0 22.867l52.119 52.114c3.0416 3.0442 7.1021 4.7216 11.431 4.7216 4.3328 0 8.3934-1.6774 11.435-4.7216l13.23-13.226c3.5705-3.5685 10.665-4.7217 15.18-2.4618 0.25274 0.11263 28.16 11.641 28.16 11.641 5.0368 1.7007 9.2413 7.5369 9.2413 12.593v18.72c0 8.9192 7.2538 16.173 16.172 16.173h73.693c8.9146 0 16.168-7.2535 16.168-16.173v-18.72c0-5.0556 4.2045-10.896 8.9962-12.503 0.24892-0.089246 28.156-11.618 28.156-11.618 4.7723-2.3725 11.871-1.2193 15.437 2.3454l13.236 13.233c3.0415 3.0443 7.1021 4.7217 11.431 4.7217 4.329 0 8.3895-1.6774 11.431-4.7217l52.12-52.113c3.0416-3.0404 4.7218-7.102 4.7218-11.432 0-4.3295-1.6802-8.3911-4.7218-11.431l-13.236-13.237c-3.5705-3.5685-4.7179-10.667-2.462-15.179 0.11674-0.25628 11.645-28.159 11.645-28.159 1.6997-5.044 7.5378-9.2454 12.59-9.2454h18.72c8.9184 0 16.172-7.2534 16.172-16.169v-73.695c0.0123-8.9192-7.2421-16.173-16.161-16.173z"/>
  <path style="stroke-linejoin:round;fill-opacity:0;stroke:url(#linearGradient4185);stroke-linecap:round;stroke-width:29.696" d="m256.01-116.55c-45.769 0-77.132-36.961-77.132-77.841 0-43.177 34.958-77.066 77.132-77.007 42.793 0.0594 78.883 35.611 77.548 79.104-1.2814 41.746-34.007 75.744-77.548 75.744z"/>
 </g>
</svg>
