<?xml version="1.0" encoding="UTF-8" standalone="no"?>
<svg xmlns:rdf="http://www.w3.org/1999/02/22-rdf-syntax-ns#" xmlns="http://www.w3.org/2000/svg" height="512" width="512" version="1.1" xmlns:cc="http://creativecommons.org/ns#" xmlns:xlink="http://www.w3.org/1999/xlink" viewBox="0 0 512.00001 512.00001" xmlns:dc="http://purl.org/dc/elements/1.1/">
 <defs>
  <linearGradient id="linearGradient4154" x1="244.83" gradientUnits="userSpaceOnUse" y1="940.27" gradientTransform="translate(-11.169 -.0000041849)" x2="244.83" y2="638.63">
   <stop style="stop-color:#3296ff" offset="0"/>
   <stop style="stop-color:#00c8ff" offset="1"/>
  </linearGradient>
  <linearGradient id="linearGradient4249" y2="638.63" xlink:href="#linearGradient4154" gradientUnits="userSpaceOnUse" x2="244.83" gradientTransform="translate(-6e-6,-540.36)" y1="940.27" x1="244.83"/>
  <linearGradient id="linearGradient4260" y2="98.268" xlink:href="#linearGradient4154" gradientUnits="userSpaceOnUse" x2="244.83" y1="399.91" x1="244.83"/>
 </defs>
 <g transform="translate(11.169 -540.36)">
  <g style="fill:url(#linearGradient4154)">
   <path style="fill:url(#linearGradient4249)" d="m244.62 98.268c-24.54 0-44.74 7.512-60.63 22.552-15.88 14.89-23.82 32.69-23.82 53.39 0 11.91 2.69 22.83 8.08 32.76 1.89 3.48 4.1 6.85 6.6 10.12h74.76c-23.71-13.57-39.23-24.76-46.47-33.52-6.1-7.23-9.15-15.24-9.15-24.04 0-11.48 4.82-21.7 14.47-30.63 9.64-9.08 21.84-13.61 36.58-13.61 13.05 0 25.67 3.33 37.87 9.99 12.2 6.67 21.56 15.68 28.08 27.02 6.67 11.35 11.27 26.59 13.83 45.74h7.87v-99.772h-7.87c-1.42 6.662-3.34 11.132-5.75 13.402-2.27 2.13-5.24 3.19-8.93 3.19-3.26 0-8.86-1.77-16.81-5.32-17.16-7.51-33.39-11.272-48.71-11.272zm24.11 182.82c10.69 6.24 17.79 10.69 21.2 13.31 8.23 6.24 14.25 12.98 18.08 20.21 3.97 7.23 5.96 14.39 5.96 21.48 0 12.77-5.18 23.83-15.53 33.19-10.21 9.36-24.18 14.04-41.91 14.04-15.31 0-29.43-3.41-42.33-10.21-12.76-6.81-22.26-15.32-28.5-25.53-6.24-10.35-11.21-25.88-14.9-46.59h-7.87v98.92h7.87c1-6.66 2.49-11.06 4.47-13.19 2.13-2.12 4.96-3.19 8.51-3.19 3.69 0 12.41 2.27 26.17 6.81 13.89 4.39 23.04 6.95 27.44 7.66 7.37 1.27 15.24 1.91 23.61 1.91 26.66 0 48.43-7.87 65.3-23.61 17.02-15.88 25.53-34.75 25.53-56.59 0-11.48-2.69-22.47-8.08-32.97-0.97-1.93-2.04-3.81-3.16-5.65h-71.86z" transform="translate(-11.169 540.36)"/>
  </g>
 </g>
 <path style="stroke-linejoin:round;stroke:url(#linearGradient4260);stroke-width:31.25;fill:none" d="m128 249.09h256"/>
</svg>
