<?xml version="1.0" encoding="UTF-8" standalone="no"?>
<svg xmlns:rdf="http://www.w3.org/1999/02/22-rdf-syntax-ns#" xmlns="http://www.w3.org/2000/svg" height="512" width="512" version="1.1" xmlns:cc="http://creativecommons.org/ns#" xmlns:xlink="http://www.w3.org/1999/xlink" viewBox="0 0 511.99999 511.99999" xmlns:dc="http://purl.org/dc/elements/1.1/">
 <defs>
  <linearGradient id="linearGradient4400">
   <stop style="stop-color:#3296ff" offset="0"/>
   <stop style="stop-color:#00c8ff" offset="1"/>
  </linearGradient>
  <linearGradient id="linearGradient4408" y2="531.6" xlink:href="#linearGradient4400" gradientUnits="userSpaceOnUse" x2="255.95" gradientTransform="matrix(.98678 0 0 .98677 3.3756 10.543)" y1="1061.1" x1="255.95"/>
  <linearGradient id="linearGradient4410" y2="540.36" xlink:href="#linearGradient4400" gradientUnits="userSpaceOnUse" x2="255.95" y1="1052.4" x1="255.95"/>
  <linearGradient id="linearGradient4414" y2="530.43" xlink:href="#linearGradient4400" gradientUnits="userSpaceOnUse" x2="256" gradientTransform="matrix(.98261 0 0 .98260 4.3943 13.911)" y1="1062.1" x1="256"/>
  <linearGradient id="linearGradient4420" y2="175.75" xlink:href="#linearGradient4400" gradientUnits="userSpaceOnUse" x2="338.59" y1="1047.9" x1="104.9"/>
  <linearGradient id="linearGradient4449" y2="1052.9" xlink:href="#linearGradient4400" gradientUnits="userSpaceOnUse" x2="96.653" y1="180.72" x1="330.35"/>
 </defs>
 <g transform="translate(0 -540.36)">
  <g transform="matrix(.92067 0 0 .92410 20.305 60.448)">
   <path style="stroke:url(#linearGradient4408);stroke-width:52.039;fill:none" d="m423.74 964.22a237.31 237.31 0 0 1 -335.61 0 237.31 237.31 0 0 1 -0.000005 -335.61"/>
   <g style="stroke:url(#linearGradient4410);stroke-width:1.0987" transform="matrix(.98261 0 0 .98260 4.3943 13.911)">
    <path style="stroke:url(#linearGradient4410);stroke-width:34.333;fill:none" d="m85.227 625.59a241.51 241.51 0 0 1 233.28 -62.51 241.51 241.51 0 0 1 170.77 170.77 241.51 241.51 0 0 1 -62.51 233.29"/>
   </g>
   <path style="stroke:url(#linearGradient4414);stroke-width:52.039;fill:none" d="m88.138 628.62a237.31 237.31 0 0 1 229.22 -61.42 237.31 237.31 0 0 1 167.8 167.8 237.31 237.31 0 0 1 -61.42 229.22"/>
   <path style="stroke:url(#linearGradient4449);stroke-width:119.91;fill:none" transform="matrix(-.55891 .14976 -.14976 -.55892 467.64 1109.1)" d="m490.77 1004.1h-128l64-110.85z"/>
   <path style="stroke:url(#linearGradient4420);stroke-width:119.91;fill:none" d="m490.77 1004.1h-128l64-110.85z" transform="matrix(.55891 -.14976 .14976 .55892 40.376 487.59)"/>
  </g>
 </g>
</svg>
