<?xml version="1.0" encoding="UTF-8" standalone="no"?>
<svg xmlns:rdf="http://www.w3.org/1999/02/22-rdf-syntax-ns#" xmlns="http://www.w3.org/2000/svg" height="512" width="512" version="1.1" xmlns:cc="http://creativecommons.org/ns#" xmlns:xlink="http://www.w3.org/1999/xlink" viewBox="0 0 144.49778 144.49778" xmlns:dc="http://purl.org/dc/elements/1.1/">
 <defs>
  <linearGradient id="linearGradient4207">
   <stop style="stop-color:#3296ff" offset="0"/>
   <stop style="stop-color:#00c8ff" offset="1"/>
  </linearGradient>
  <linearGradient id="linearGradient4163" y2="152.34" xlink:href="#linearGradient4207" gradientUnits="userSpaceOnUse" x2="71.951" y1="297.16" x1="71.951"/>
 </defs>
 <g transform="translate(0 -152.5)">
  <path style="stroke-width:10.583;fill-opacity:0;color:#000000;stroke:url(#linearGradient4163);stroke-linecap:round" d="m72.298 157.79c-28.232 0-51.119 5.902-51.119 13.182l0.09047 0.75508c0.000111 0.00055-0.000119 0.00082 0 0.002 1.5229 6.9273 23.783 12.423 51.029 12.423 27.25 0.00007 49.514-5.4978 51.03-12.427l0.0888-0.75334c-0.00004-7.2798-22.887-13.182-51.119-13.182z"/>
  <path style="fill-opacity:0;color:#000000;stroke:url(#linearGradient4163);stroke-linecap:round;stroke-width:10.583" d="m21.09 171.73 12.239 102.77c-0.000018 9.5052 17.431 17.211 38.934 17.211s38.935-7.706 38.935-17.211l12.13-102.77"/>
 </g>
</svg>
