<?xml version="1.0" encoding="UTF-8" standalone="no"?>
<svg xmlns:rdf="http://www.w3.org/1999/02/22-rdf-syntax-ns#" xmlns="http://www.w3.org/2000/svg" height="512" width="512" version="1.1" xmlns:cc="http://creativecommons.org/ns#" xmlns:xlink="http://www.w3.org/1999/xlink" viewBox="0 0 512.00001 512.00001" xmlns:dc="http://purl.org/dc/elements/1.1/">
 <defs>
  <linearGradient id="linearGradient4148">
   <stop style="stop-color:#3296ff" offset="0"/>
   <stop style="stop-color:#00c8ff" offset="1"/>
  </linearGradient>
  <linearGradient id="linearGradient4154" y2="645.22" xlink:href="#linearGradient4148" gradientUnits="userSpaceOnUse" x2="256" gradientTransform="translate(-.0000050463 -.0000041849)" y1="988.36" x1="256"/>
  <linearGradient id="linearGradient4496" y2="645.22" xlink:href="#linearGradient4148" gradientUnits="userSpaceOnUse" x2="256" gradientTransform="translate(5e-7 .0000023954)" y1="988.36" x1="256"/>
 </defs>
 <g transform="translate(0 -540.36)">
  <g style="fill:url(#linearGradient4154)">
   <path style="fill:url(#linearGradient4154)" d="m307.69 653.09v-7.8709h102.11v7.8709h-10.849q-17.018 0-26.165 14.253-4.4672 6.5945-4.4672 30.633v117q0 43.396-8.7218 67.434-8.509 23.825-33.823 41.056-25.102 17.018-68.498 17.018-47.225 0-71.689-16.38t-34.674-44.034q-6.8072-18.933-6.8072-71.051v-112.74q0-26.591-7.4454-34.887-7.2327-8.2963-23.613-8.2963h-10.849v-7.8709h124.66v7.8709h-11.062q-17.869 0-25.527 11.274-5.3182 7.6581-5.3182 31.909v125.72q0 16.805 2.9782 38.503 3.1909 21.698 11.274 33.823 8.0836 12.125 23.187 19.996 15.316 7.8709 37.44 7.8709 28.293 0 50.629-12.338t30.42-31.483q8.2963-19.358 8.2963-65.307v-116.79q0-27.016-5.9563-33.823-8.2963-9.36-24.676-9.36h-10.849z"/>
  </g>
  <path style="stroke-linejoin:round;stroke:url(#linearGradient4496);stroke-width:37.5;fill:none" d="m64 969.61h384"/>
 </g>
</svg>
